# xmcd CD database file
#
# Track frame offsets:
#	150
#	25050
#	40650
#	80025
#	85500
#	95550
#	111975
#	126750
#	144300
#
# Disc length: 2172 seconds
#
# Revision: 0
# Processed by: cddbd v1.5.2PL0 Copyright (c) Steve Scherf et al.
# Submitted via: jetAudio 7
#
DISCID=6a087a09
DTITLE=Johnny Copeland - Bringing It All Back Home
DYEAR=1900
DGENRE=Blues
TTITLE0=Kasavubu
TTITLE1=The Jungle
TTITLE2=Ngote
TTITLE3=DJeli, DJeli Blues
TTITLE4=DJeli, DJeli Blues (Continued)
TTITLE5=AbiDJan
TTITLE6=Bozalimalamu
TTITLE7=Same Thing
TTITLE8=Conarky
EXTD=
EXTT0=
EXTT1=
EXTT2=
EXTT3=
EXTT4=
EXTT5=
EXTT6=
EXTT7=
EXTT8=
PLAYORDER=
